# xmcd CD database file
#
# Track frame offsets:
#	150
#	14401
#	32107
#	54189
#	76978
#	95187
#	114232
#	130337
#	141791
#	161781
#	186516
#	198325
#	212098
#	234491
#
# Disc length: 3367 seconds
#
# Revision: 0
# Processed by: cddbd v1.5.1PL2 Copyright (c) Steve Scherf et al.
# Submitted via: CDex 1.60beta1
#
DISCID=c30d250e
DTITLE=Earl Klugh - Naked Guitar
DYEAR=2005
DGENRE=Jazz
TTITLE0=The Night Has a Thousand Eyes
TTITLE1=Baubles, Bangles And Beads
TTITLE2=Serenata
TTITLE3=Alice in Wonderland
TTITLE4=In the Moonlight
TTITLE5=The Summer Knows
TTITLE6=Ding Dong The Witch Is Dead
TTITLE7=Who Can I Turn To
TTITLE8=On a Clear Day
TTITLE9=Be My Love
TTITLE10=I Want to Hold Your Hand
TTITLE11=All the Things You Are
TTITLE12=Moon River
TTITLE13=Angelina
EXTD=YEAR: 2005
EXTT0=
EXTT1=
EXTT2=
EXTT3=
EXTT4=
EXTT5=
EXTT6=
EXTT7=
EXTT8=
EXTT9=
EXTT10=
EXTT11=
EXTT12=
EXTT13=
PLAYORDER=
